<mxfile host="65bd71144e">
    <diagram id="HgxuDFO7ci0bPYLWqyz5" name="Page-1">
        <mxGraphModel dx="980" dy="830" grid="1" gridSize="10" guides="1" tooltips="1" connect="1" arrows="1" fold="1" page="1" pageScale="1" pageWidth="827" pageHeight="1169" background="#FFE6CC" math="0" shadow="1">
            <root>
                <mxCell id="0"/>
                <mxCell id="1" parent="0"/>
                <object label="&lt;h1 style=&quot;font-size: 15px&quot;&gt;&lt;font style=&quot;font-size: 27px&quot;&gt;Домашняя работа&lt;/font&gt;&lt;/h1&gt;&lt;p style=&quot;font-size: 15px&quot;&gt;&lt;font style=&quot;font-size: 15px&quot;&gt;К первому занятию курсу &quot;Введение в программирование (семинары)&quot;&lt;/font&gt;&lt;/p&gt;&lt;p style=&quot;font-size: 15px&quot;&gt;&lt;span dir=&quot;ltr&quot; style=&quot;left: 17.9788px; top: 106.551px; font-size: 14.3831px; font-family: sans-serif; transform: scaleX(1.01978);&quot;&gt;Задача 4.&lt;/span&gt;&lt;span dir=&quot;ltr&quot; style=&quot;left: 82.2251px; top: 106.551px; font-size: 14.3831px; font-family: sans-serif;&quot;&gt;&amp;nbsp;&lt;/span&gt;&lt;span dir=&quot;ltr&quot; style=&quot;left: 86.2048px; top: 106.551px; font-size: 14.3831px; font-family: sans-serif; transform: scaleX(1.0812);&quot;&gt;Нарисовать блок-схему. Найти среднее арифметическое среди всех элементов массива.&lt;/span&gt;&lt;br&gt;&lt;/p&gt;&lt;font style=&quot;font-size: 15px&quot;&gt;𝖒𝖎𝖘𝖙𝖊𝖗𝖆𝖇𝖛𝖎𝖗&lt;br&gt;&lt;/font&gt;&lt;p style=&quot;font-size: 15px&quot;&gt;&lt;a href=&quot;https://gb.ru/users/8831713&quot;&gt;&lt;font style=&quot;font-size: 15px&quot;&gt;GeekBrains&lt;/font&gt;&lt;/a&gt;&lt;/p&gt;&lt;p style=&quot;font-size: 15px&quot;&gt;&lt;a href=&quot;https://github.com/misterabvir/gb_algorithms/&quot;&gt;&lt;font style=&quot;font-size: 15px&quot;&gt;Github&lt;/font&gt;&lt;/a&gt;&lt;/p&gt;" id="23">
                    <mxCell style="text;html=1;strokeColor=none;fillColor=none;spacing=5;spacingTop=-20;whiteSpace=wrap;overflow=hidden;rounded=0;fontSize=14;fontColor=#1A1A1A;fontStyle=1" parent="1" vertex="1">
                        <mxGeometry x="20" y="40" width="790" height="230" as="geometry"/>
                    </mxCell>
                </object>
                <mxCell id="CR5Wsd1j0-2uPPrCEZl8-24" value="" style="edgeStyle=orthogonalEdgeStyle;rounded=1;orthogonalLoop=1;jettySize=auto;html=1;labelBackgroundColor=none;strokeColor=#1A1A1A;strokeWidth=2;fontColor=#1A1A1A;" parent="1" source="CR5Wsd1j0-2uPPrCEZl8-25" target="CR5Wsd1j0-2uPPrCEZl8-26" edge="1">
                    <mxGeometry relative="1" as="geometry"/>
                </mxCell>
                <mxCell id="CR5Wsd1j0-2uPPrCEZl8-25" value="average" style="shape=document;whiteSpace=wrap;html=1;boundedLbl=1;fontSize=14;fillColor=#f9f7ed;strokeColor=#36393d;fontColor=#1A1A1A;rounded=1;strokeWidth=2;fontStyle=1;" parent="1" vertex="1">
                    <mxGeometry x="520" y="560" width="120" height="50" as="geometry"/>
                </mxCell>
                <mxCell id="CR5Wsd1j0-2uPPrCEZl8-26" value="END" style="ellipse;whiteSpace=wrap;html=1;rounded=1;fillColor=#f9f7ed;strokeColor=#36393d;strokeWidth=2;fontColor=#1A1A1A;fontStyle=1;fontSize=14;" parent="1" vertex="1">
                    <mxGeometry x="520" y="650" width="120" height="80" as="geometry"/>
                </mxCell>
                <mxCell id="CR5Wsd1j0-2uPPrCEZl8-27" value="" style="edgeStyle=none;curved=1;rounded=1;html=1;fontSize=14;fontColor=#1A1A1A;labelBackgroundColor=none;strokeColor=#1A1A1A;strokeWidth=2;" parent="1" source="CR5Wsd1j0-2uPPrCEZl8-28" target="CR5Wsd1j0-2uPPrCEZl8-30" edge="1">
                    <mxGeometry relative="1" as="geometry"/>
                </mxCell>
                <mxCell id="CR5Wsd1j0-2uPPrCEZl8-28" value="START" style="ellipse;whiteSpace=wrap;html=1;rounded=1;fillColor=#f9f7ed;strokeColor=#36393d;strokeWidth=2;fontColor=#1A1A1A;fontStyle=1;fontSize=14;" parent="1" vertex="1">
                    <mxGeometry x="160" y="280" width="120" height="80" as="geometry"/>
                </mxCell>
                <mxCell id="CR5Wsd1j0-2uPPrCEZl8-29" value="" style="edgeStyle=orthogonalEdgeStyle;rounded=0;orthogonalLoop=1;jettySize=auto;html=1;strokeColor=#1A1A1A;strokeWidth=2;" parent="1" source="CR5Wsd1j0-2uPPrCEZl8-30" target="CR5Wsd1j0-2uPPrCEZl8-32" edge="1">
                    <mxGeometry relative="1" as="geometry"/>
                </mxCell>
                <mxCell id="CR5Wsd1j0-2uPPrCEZl8-30" value="size&lt;br&gt;nums[size]" style="shape=parallelogram;perimeter=parallelogramPerimeter;whiteSpace=wrap;html=1;fixedSize=1;fontSize=14;fillColor=#f9f7ed;strokeColor=#36393d;fontColor=#1A1A1A;rounded=1;strokeWidth=2;fontStyle=1;" parent="1" vertex="1">
                    <mxGeometry x="160" y="400" width="120" height="40" as="geometry"/>
                </mxCell>
                <mxCell id="CR5Wsd1j0-2uPPrCEZl8-31" value="" style="edgeStyle=orthogonalEdgeStyle;rounded=1;orthogonalLoop=1;jettySize=auto;html=1;labelBackgroundColor=none;strokeColor=#1A1A1A;strokeWidth=2;fontColor=#1A1A1A;" parent="1" source="CR5Wsd1j0-2uPPrCEZl8-32" target="CR5Wsd1j0-2uPPrCEZl8-35" edge="1">
                    <mxGeometry relative="1" as="geometry"/>
                </mxCell>
                <mxCell id="CR5Wsd1j0-2uPPrCEZl8-32" value="index = 0&lt;br&gt;sum = 0" style="rounded=1;whiteSpace=wrap;html=1;fontSize=14;fillColor=#f9f7ed;strokeColor=#36393d;fontColor=#1A1A1A;strokeWidth=2;fontStyle=1;" parent="1" vertex="1">
                    <mxGeometry x="160" y="480" width="120" height="40" as="geometry"/>
                </mxCell>
                <mxCell id="CR5Wsd1j0-2uPPrCEZl8-41" value="YES" style="edgeStyle=orthogonalEdgeStyle;rounded=0;orthogonalLoop=1;jettySize=auto;html=1;exitX=0.5;exitY=1;exitDx=0;exitDy=0;strokeColor=#1A1A1A;strokeWidth=2;" parent="1" source="CR5Wsd1j0-2uPPrCEZl8-35" target="CR5Wsd1j0-2uPPrCEZl8-39" edge="1">
                    <mxGeometry relative="1" as="geometry"/>
                </mxCell>
                <mxCell id="26" value="" style="edgeStyle=none;html=1;fontColor=#1A1A1A;" parent="1" source="CR5Wsd1j0-2uPPrCEZl8-35" target="25" edge="1">
                    <mxGeometry relative="1" as="geometry"/>
                </mxCell>
                <mxCell id="27" value="NO" style="edgeStyle=none;html=1;entryX=0;entryY=0.5;entryDx=0;entryDy=0;fontColor=#FFFFFF;strokeWidth=2;strokeColor=#1A1A1A;" parent="1" source="CR5Wsd1j0-2uPPrCEZl8-35" target="25" edge="1">
                    <mxGeometry x="-0.5" y="10" relative="1" as="geometry">
                        <mxPoint as="offset"/>
                    </mxGeometry>
                </mxCell>
                <mxCell id="CR5Wsd1j0-2uPPrCEZl8-35" value="index &amp;lt; size" style="shape=hexagon;perimeter=hexagonPerimeter2;whiteSpace=wrap;html=1;fixedSize=1;fontSize=14;fillColor=#f9f7ed;strokeColor=#36393d;fontColor=#1A1A1A;rounded=1;strokeWidth=2;fontStyle=1;" parent="1" vertex="1">
                    <mxGeometry x="160" y="560" width="120" height="40" as="geometry"/>
                </mxCell>
                <mxCell id="CR5Wsd1j0-2uPPrCEZl8-38" style="edgeStyle=orthogonalEdgeStyle;rounded=1;orthogonalLoop=1;jettySize=auto;html=1;exitX=0;exitY=0.5;exitDx=0;exitDy=0;labelBackgroundColor=none;strokeColor=#1A1A1A;strokeWidth=2;fontColor=#1A1A1A;" parent="1" source="CR5Wsd1j0-2uPPrCEZl8-39" edge="1">
                    <mxGeometry relative="1" as="geometry">
                        <mxPoint x="220" y="540" as="targetPoint"/>
                        <Array as="points">
                            <mxPoint x="100" y="660"/>
                            <mxPoint x="100" y="540"/>
                        </Array>
                    </mxGeometry>
                </mxCell>
                <mxCell id="CR5Wsd1j0-2uPPrCEZl8-39" value="size = size + nums[index]&lt;br&gt;index = index + 1" style="rounded=1;whiteSpace=wrap;html=1;fontSize=14;fillColor=#f9f7ed;strokeColor=#36393d;fontColor=#1A1A1A;strokeWidth=2;fontStyle=1;" parent="1" vertex="1">
                    <mxGeometry x="120" y="640" width="200" height="40" as="geometry"/>
                </mxCell>
                <mxCell id="28" style="edgeStyle=none;html=1;entryX=0.009;entryY=0.433;entryDx=0;entryDy=0;fontColor=#1A1A1A;strokeColor=#1A1A1A;strokeWidth=2;entryPerimeter=0;" parent="1" source="25" target="CR5Wsd1j0-2uPPrCEZl8-25" edge="1">
                    <mxGeometry relative="1" as="geometry"/>
                </mxCell>
                <mxCell id="25" value="average = sum / size" style="rounded=1;whiteSpace=wrap;html=1;fontSize=14;fillColor=#f9f7ed;strokeColor=#36393d;fontColor=#1A1A1A;strokeWidth=2;fontStyle=1;" parent="1" vertex="1">
                    <mxGeometry x="320" y="560" width="160" height="40" as="geometry"/>
                </mxCell>
            </root>
        </mxGraphModel>
    </diagram>
</mxfile>